/* @(#)privtool-new.xbm	1.1 9/5/95 */
#define newmail_icon_width 64
#define newmail_icon_height 64
char newmail_icon_bits[] = {
 0x00,0x00,0x00,0xfc,0x1f,0x00,0x00,0x00,0x00,0x00,0x80,0xff,0xff,0x00,0x00,
 0x00,0x00,0x00,0xf0,0xf7,0xff,0x07,0x00,0x00,0x00,0x00,0xfc,0xe3,0xff,0x1f,
 0x00,0x00,0x00,0x00,0xfe,0xc1,0xf0,0x3f,0x00,0x00,0x00,0x80,0xff,0x80,0x01,
 0xff,0x00,0x00,0x00,0xc0,0x7f,0x00,0x03,0xfc,0x01,0x00,0x00,0xe0,0x37,0x00,
 0x06,0xe0,0x03,0x00,0x00,0xf0,0x1b,0x40,0x0c,0xe0,0x07,0x00,0x00,0xf8,0x0c,
 0x00,0x18,0xf0,0x0f,0x00,0x00,0x7c,0x06,0x10,0x31,0xf8,0x1f,0x00,0x00,0x3e,
 0x03,0x88,0x60,0x7c,0x3e,0x00,0x00,0x9e,0x01,0x40,0xc4,0x3e,0x3c,0x00,0x00,
 0xdf,0x00,0x02,0x82,0x1f,0x7c,0x00,0x80,0x6f,0x00,0x11,0x80,0x0f,0xf8,0x00,
 0x80,0x37,0x80,0x80,0xc8,0x07,0xf0,0x00,0xc0,0x1f,0x40,0x44,0xe4,0x03,0xf0,
 0x01,0xc0,0x0f,0x02,0x02,0xf0,0x01,0xe0,0x01,0xc0,0x07,0x11,0x10,0xf9,0x00,
 0xe0,0x01,0xe0,0x83,0x88,0x88,0x7c,0x00,0xc0,0x03,0xe0,0x01,0x40,0x44,0x3e,
 0x00,0xc0,0x03,0xe0,0x20,0x02,0x00,0x1f,0x18,0xc0,0x03,0x70,0x10,0x11,0x91,
 0x1f,0x38,0xc0,0x07,0x70,0x88,0x88,0xc8,0x1f,0x3c,0x80,0x07,0xf0,0x44,0x04,
 0xe0,0x13,0x74,0x80,0x07,0xf0,0x01,0x00,0xf2,0x01,0x76,0x80,0x07,0xf0,0x03,
 0x11,0xf9,0x03,0x62,0x80,0x07,0xf0,0x06,0x88,0xfc,0x0f,0xe3,0x80,0x07,0xf0,
 0x0c,0x04,0x7e,0x1f,0xc1,0x80,0x07,0xf0,0x18,0x20,0x3f,0x1c,0xff,0x81,0x07,
 0xf0,0x30,0x90,0x1f,0x98,0xc1,0x81,0x07,0xf0,0x60,0xc0,0x3f,0x98,0x80,0x83,
 0x07,0xf0,0xc1,0xe0,0x77,0xcc,0x80,0xc3,0x07,0xe0,0x81,0xf1,0xd3,0xe7,0xe3,
 0xcf,0x03,0xe0,0x01,0xfb,0x01,0x00,0x00,0xc0,0x03,0xe0,0x01,0xfe,0x01,0x00,
 0x00,0xc0,0x03,0xc0,0x03,0x7e,0x00,0x00,0x00,0xe0,0x01,0xc0,0x03,0x3f,0x00,
 0x00,0x00,0xe0,0x01,0xc0,0x87,0x1f,0x00,0x00,0x00,0xf0,0x01,0x80,0xc7,0x0f,
 0x00,0x00,0x00,0xf0,0x00,0x80,0xef,0x07,0x00,0x00,0x00,0xf8,0x00,0x00,0xff,
 0x03,0x00,0x00,0x00,0x7c,0x00,0x00,0xfe,0x01,0x00,0x00,0x00,0x3c,0x00,0x00,
 0xfe,0x00,0x00,0x00,0x00,0x3e,0x00,0x00,0x7c,0x00,0x00,0x00,0x00,0x1f,0x00,
 0x00,0xf8,0x00,0x00,0x00,0x80,0x0f,0x00,0x00,0xf0,0x03,0x00,0x00,0xe0,0x07,
 0x00,0x00,0xe0,0x07,0x00,0x00,0xf0,0x03,0x00,0x00,0xc0,0x1f,0x00,0x00,0xfc,
 0x01,0x00,0x00,0x80,0x7f,0x00,0x00,0xff,0x00,0x00,0x00,0x00,0xfe,0x07,0xf0,
 0x3f,0x00,0x00,0x00,0x00,0xfc,0xff,0xff,0x1f,0x00,0x00,0x00,0x00,0xf0,0xff,
 0xff,0x07,0x00,0x00,0x00,0x00,0x80,0xff,0xff,0x00,0x08,0x00,0x00,0x00,0x00,
 0xfc,0x1f,0x00,0x08,0x00,0x00,0x00,0x00,0x00,0x04,0x00,0x08,0x00,0x00,0xa0,
 0xa3,0x0a,0xef,0xf1,0x08,0x00,0x00,0x60,0x64,0x0a,0x15,0x0a,0x09,0x00,0x00,
 0x20,0x24,0x92,0x14,0x0a,0x09,0x00,0x00,0x20,0x24,0x92,0x14,0x0a,0x09,0x00,
 0x00,0x60,0x24,0x62,0x14,0x0a,0x09,0x00,0x00,0xa0,0x23,0x62,0xec,0xf1,0x08,
 0x00,0x00,0x20,0x00,0x00,0x00,0x00,0x00,0x00,0x00,0x20,0x00,0x00,0x00,0x00,
 0x00,0x00};

