/* XPM */
static char * compose_xpm[] = {
"24 24 5 1 XPMEXT",
" 	s background	c None",
".	c black",
"X	c white",
"o	c #000000001111",
"O	c #B6B6AEAEB6B6",
"                        ",
"    ..................  ",
"    .X.X.X.X.X.X.X.Xo.  ",
"    .XXXXXXXXXXXX.XXX.  ",
"    .XXXXXXXXXXX.O.XX.  ",
"    .XXXXXXXXXX.O.XXX.  ",
"    .XXXXXXXXX.O.XXXX.  ",
"    .XXXXXXXXX.OXXXXX.  ",
"    .XXXXXXXX.O.XXXXX.  ",
"    .XXXXXXX.O.XXXXXX.  ",
"    .XXXXXX.O.XXXXXXX.  ",
"    .XXXXX.O.XXXXXXXX.  ",
"    .XXXXX.OXXXXXXXXX.  ",
"    .XXXX.O.XXXXXXXXX.  ",
"    .XXX.O.XXXXXXXXXX.  ",
"    .XXX..XXXXXXXXXXX.  ",
"    .XX.XXXXXXXXXXXXX.  ",
"    .XXXXXXXXXXXXXXXX.  ",
"    .XXXXXXXXXXXXXXXX.  ",
"    .XXXXXXXXXXXXXXXX.  ",
"    .XXXXXXXXXXXXXXXX.  ",
"    .XXXXXXXXXXXXXXXX.  ",
"    ..................  ",
"                        ",
"XPMEXT Comment",
"$Id$",
"XPMENDEXT"};
