/* XPM */
static char * compose_xpm[] = {
"24 24 11 1",
" 	s None	c None",
".	c black",
"X	c #38386D6DA6A6",
"o	c white",
"O	c #000000001111",
"+	c #BEBE20202020",
"@	c yellow",
"#	c #AEAE55552828",
"$	c #9E9E9A9A9E9E",
"%	c #030303030404",
"&	c #FFFF14144141",
"                        ",
" .................X     ",
" .o.o.o.o.o.o.o.oOX     ",
" .oooooooooooooooOX     ",
" .oXXoooooooooooooX     ",
" .oo++.oooooooooooX     ",
" .oo++@.ooooooooooX     ",
" .ooo.#@.oooooooooX     ",
" .oooo.#@.ooooooooX     ",
" .ooooo.#@.oooooooX     ",
" .oooooo.#@.ooooooX     ",
" .ooooooo.#@.oooooX     ",
" .oooooooo.#@.ooooX     ",
" .ooooooooo.#@.oooX     ",
" .oooooooooo.#@.ooX     ",
" .ooooooooooo.#@.oX     ",
" .oooooooooooo.#@.X     ",
" .ooooooooooooo.#@.     ",
" .oooooooooooooo.#@.    ",
" .ooooooooooooooo.$$$   ",
" %oooooooooooooooo.$&&  ",
" ........%%.......X$&&& ",
" XXXXXXXXXXXXXXXXXX &&  ",
"                        "};
