/* XPM */
static char * compose_is_xpm[] = {
"24 24 11 1",
" 	s None	c None",
".	c black",
"X	c #38386D6DA6A6",
"o	c white",
"O	c #000000001111",
"+	c #BEBE20202020",
"@	c yellow",
"#	c #AEAE55552828",
"$	c #9E9E9A9A9E9E",
"%	c #030303030404",
"&	c #FFFF14144141",
"                        ",
" . . . . . . . . .      ",
"  o o o o o o o o X     ",
" . o o o o o o o O      ",
"  o X o o o o o o X     ",
" . o + o o o o o o      ",
"  o + @ o o o o o X     ",
" . o . @ o o o o o      ",
"  o o . @ o o o o X     ",
" . o o . @ o o o o      ",
"  o o o . @ o o o X     ",
" . o o o . @ o o o      ",
"  o o o o . @ o o X     ",
" . o o o o . @ o o      ",
"  o o o o o . @ o X     ",
" . o o o o o . @ o      ",
"  o o o o o o . @ X     ",
" . o o o o o o . @      ",
"  o o o o o o o . @     ",
" . o o o o o o o . $    ",
"  o o o o o o o o . &   ",
" . . . . % . . . . $ &  ",
"  X X X X X X X X X &   ",
"                        "};
