/* XPM */
static char * delete_xpm[] = {
"24 24 14 1 XPMEXT",
" 	s background	c None",
".	c black",
"X	c white",
"o	c #717179798686",
"O	c #000000001111",
"+	c #38386D6DA6A6",
"@	c #8E8E8A8A8E8E",
"#	c #797986869E9E",
"$	c #BEBEB6B6BEBE",
"%	c SlateBlue4",
"&	c darkSlateGrey",
"*	c #B6B6AEAEB6B6",
"=	c #AEAEAEAEB6B6",
"-	c #A6A679798E8E",
"                        ",
"      ..................",
"      .X.X.X.X.X.X. .oO.",
"      .XXXXXXXXXXXX+XoO.",
"      .XX++XX++++X++XoO.",
"      .XXXXXXX.XXXXXXo..",
"      .XX..++.o.XXXXXo..",
"      .X.o.X.oo.XXXX.o..",
"      ..oo.XX.oo.XX.o...",
"       @oo.X.oooo..ooo+.",
"    .. o..o.o##@@#@o@@+.",
"    .X..$.##oo@#o@oo%%%.",
"    .X$$.##o&&&oo&o&&&%.",
"    .XXX...+..&&&&&..&%.",
"   .XXXXXXX.. .&&&.X.&&.",
"  ..XXX+++++++X.&.XX.&%.",
" ..XXXXXXXXXXXX..XXX.&%.",
"...XXXXX+X++XX*+=-..O&%.",
"  ...XXXXXXXXXX@o+.O&%%.",
"     ...XXX*@X++X.O&%%%.",
"      %...XXXXXX..O&&%%.",
"      .%%...X+++.O&&%%%.",
"      .......XX.........",
"            ....        ",
"XPMEXT Comment",
"$Id$",
"XPMENDEXT"};
