/* XPM */
static char * exclamation_xpm[] = {
"50 70 118 2",
"  	c None",
". 	c #FFD61E",
"+ 	c #FFCB1C",
"@ 	c #FFC41B",
"# 	c #FFD91E",
"$ 	c #FFD81E",
"% 	c #FFCD1D",
"& 	c #FFC61C",
"* 	c #FFBF1B",
"= 	c #FFB119",
"- 	c #FFD21D",
"; 	c #FFD71E",
"> 	c #FFDA1E",
", 	c #FFD41E",
"' 	c #FFC51C",
") 	c #FFBB1A",
"! 	c #FFB71A",
"~ 	c #FFB019",
"{ 	c #D69214",
"] 	c #FFCC1D",
"^ 	c #EEA317",
"/ 	c #E79F16",
"( 	c #EAA016",
"_ 	c #DA9515",
": 	c #8A6A2E",
"< 	c #FFC81C",
"[ 	c #FFCA1C",
"} 	c #E49C16",
"| 	c #E19A15",
"1 	c #DC9715",
"2 	c #9A7122",
"3 	c #FFB719",
"4 	c #FFBD1A",
"5 	c #ECA217",
"6 	c #9E7529",
"7 	c #717171",
"8 	c #FAAB18",
"9 	c #FFB519",
"0 	c #E59D16",
"a 	c #DB9615",
"b 	c #98732D",
"c 	c #707070",
"d 	c #F1A517",
"e 	c #F6A918",
"f 	c #E29B16",
"g 	c #E09915",
"h 	c #D59214",
"i 	c #7B6B4E",
"j 	c #FFAF18",
"k 	c #FFB619",
"l 	c #DF9915",
"m 	c #C78813",
"n 	c #FFB81A",
"o 	c #F5A817",
"p 	c #8F723A",
"q 	c #FFB319",
"r 	c #FFBA1A",
"s 	c #CD8C14",
"t 	c #716D65",
"u 	c #FBAC18",
"v 	c #91733B",
"w 	c #FFB219",
"x 	c #FFB419",
"y 	c #92733A",
"z 	c #726E66",
"A 	c #F9AB18",
"B 	c #927339",
"C 	c #706C64",
"D 	c #F0A517",
"E 	c #947436",
"F 	c #FFB91A",
"G 	c #EBA116",
"H 	c #CE8D14",
"I 	c #716C63",
"J 	c #FEAE18",
"K 	c #A27728",
"L 	c #D29014",
"M 	c #766A54",
"N 	c #B07E1D",
"O 	c #D39114",
"P 	c #78694E",
"Q 	c #727272",
"R 	c #BD8315",
"S 	c #8E6D2D",
"T 	c #D08E14",
"U 	c #FDAD18",
"V 	c #A3751E",
"W 	c #FFC11B",
"X 	c #CD8D16",
"Y 	c #F9AA18",
"Z 	c #F8AA18",
"` 	c #CB8D18",
" .	c #6F6F6F",
"..	c #FFD11D",
"+.	c #FFD01D",
"@.	c #F3A617",
"#.	c #F4A717",
"$.	c #B27D1D",
"%.	c #FFC91C",
"&.	c #C28512",
"*.	c #E69E16",
"=.	c #D18F14",
"-.	c #786542",
";.	c #79684A",
">.	c #EFA417",
",.	c #CC8C13",
"'.	c #DD9815",
").	c #A67A26",
"!.	c #BF8312",
"~.	c #BC841D",
"{.	c #8C6111",
"].	c #AB7510",
"^.	c #C38613",
"/.	c #CB8B13",
"(.	c #8B6F39",
"_.	c #6E6B64",
":.	c #655941",
"<.	c #6C5F49",
"                                                                                                    ",
"                                                                                                    ",
"                                                                                                    ",
"                                                                                                    ",
"                                                                                                    ",
"                                                                                                    ",
"                                                                                                    ",
"                                                                                                    ",
"                                                                                                    ",
"                                                        . + @                                       ",
"                                                    # $ . % & * =                                   ",
"                                                  - ; > , ' ) ! ~ {                                 ",
"                                                  ] - + = ^ / / ( _ :                               ",
"                                                < ' [ ~ } | | | | 1 2                               ",
"                                                3 4 4 5 | | | | | 1 6 7 7                           ",
"                                                8 9 = 0 | | | | | a b c 7 c                         ",
"                                                d ~ e f | | | | g h i 7 7 c                         ",
"                                                j k e | | | | | l m 7 7 7 7                         ",
"                                                n 4 o | | | | | a p 7 7 7 7 7                       ",
"                                                q r d | | | | g s t 7 7 7 7                         ",
"                                                u 9 ^ | | | | a v 7 7 7 c c                         ",
"                                              w w ! 5 | | | g s t 7 7 c 7 7                         ",
"                                              = x n ( | | | a v 7 7 7 7 7 7                         ",
"                                              8 ~ w / | | g s t 7 7 7 7 7                           ",
"                                              8 q = 0 | | a y 7 7 7 7 7 c                           ",
"                                              8 k ~ } | g s z 7 7 7 7 c                             ",
"                                              x r A f | a B 7 7 7 7 7 c                             ",
"                                              r * o | g s C 7 7 7 7 c                               ",
"                                            ! ! 4 D | a E 7 7 7 7 7 c                               ",
"                                            w k F G g H I 7 7 7 7 c                                 ",
"                                            J 9 9 / 1 K 7 7 7 c 7 c                                 ",
"                                            8 k = } L M 7 7 c 7 c                                   ",
"                                            k ) u l N 7 c 7 c 7 7                                   ",
"                                            r * o O P 7 Q 7 7 Q                                     ",
"                                          ! ! 4 ^ R 7 7 7 c 7 Q                                     ",
"                                          w k F } S 7 Q Q 7 c                                       ",
"                                          j k 9 T   7 7 7 7 7                                       ",
"                                          u 3 U V   7 7 7 Q                                         ",
"                                          ! 4 (   7 7 c 7 c                                         ",
"                                          4 W X   7 c c 7                                           ",
"                                        x 3 n     c c c 7                                           ",
"                                        = 3 Y     7 7 7 c                                           ",
"                                        Z j `     7 7 7                                             ",
"                                                  c c c                                             ",
"                                                  c 7                                               ",
"                                                  7  .                                              ",
"                                                                                                    ",
"                                                                                                    ",
"                                                                                                    ",
"                              # . ..[ 4 U                                                           ",
"                            $ # ; - [ * q ^                                                         ",
"                          +.... ] x Z @.#.5 $.                                                      ",
"                          < [ %.Z } | | f f &.                                                      ",
"                          W & 9 *.| | | | g =.-.                                                    ",
"                          x ) @.| | | | | g O ;.7 Q                                                 ",
"                          >.U 5 | | | | | g ,.C 7 c                                                 ",
"                          ,.g *.| | | | | '.).Q 7 7 c                                               ",
"                            !.O 1 l g l _ ~.C 7 7 7 7                                               ",
"                              {.].^./.&.(._.c 7 7 7 7                                               ",
"                                  :.<.7 7 7 7 Q 7 7 7                                               ",
"                                   .7 7 7 7 7 7 7 7                                                 ",
"                                    c c 7 7 7 7 c 7                                                 ",
"                                      7 Q 7 7 c                                                     ",
"                                                                                                    ",
"                                                                                                    ",
"                                                                                                    ",
"                                                                                                    ",
"                                                                                                    ",
"                                                                                                    ",
"                                                                                                    "};
