/* XPM */
static char * exclamation2_xpm[] = {
"60 70 123 2",
"  	c None",
". 	c #FF7621",
"+ 	c #FF711F",
"@ 	c #FF6E1E",
"# 	c #FF7821",
"$ 	c #FF721F",
"% 	c #FF6A1D",
"& 	c #FF631B",
"* 	c #FF7420",
"= 	c #FF7721",
"- 	c #FF7921",
"; 	c #FF6C1E",
"> 	c #FF691D",
", 	c #FD621B",
"' 	c #D15216",
") 	c #FF7220",
"! 	c #FF7520",
"~ 	c #F35E1A",
"{ 	c #EF5D19",
"] 	c #CC4F16",
"^ 	c #884B2F",
"/ 	c #FF6F1F",
"( 	c #FF701F",
"_ 	c #FF681D",
": 	c #EC5C19",
"< 	c #E15718",
"[ 	c #DF5618",
"} 	c #DD5618",
"| 	c #CA4E15",
"1 	c #8C4322",
"2 	c #FF671C",
"3 	c #FF6B1E",
"4 	c #F7601A",
"5 	c #E05718",
"6 	c #DC5517",
"7 	c #DA5417",
"8 	c #C94E15",
"9 	c #8A4829",
"0 	c #717171",
"a 	c #FB611B",
"b 	c #FF641C",
"c 	c #FF661C",
"d 	c #C64D15",
"e 	c #82472D",
"f 	c #707070",
"g 	c #F25E1A",
"h 	c #FA611B",
"i 	c #FC621B",
"j 	c #E75A19",
"k 	c #D75317",
"l 	c #BB4814",
"m 	c #71594E",
"n 	c #FF641B",
"o 	c #E65919",
"p 	c #DB5517",
"q 	c #D05116",
"r 	c #A43F11",
"s 	c #FF671D",
"t 	c #E55918",
"u 	c #D85417",
"v 	c #C54C15",
"w 	c #7B4E39",
"x 	c #FF651C",
"y 	c #E35818",
"z 	c #D25216",
"A 	c #AE4312",
"B 	c #6E6865",
"C 	c #F55F1A",
"D 	c #7C4F3A",
"E 	c #F65F1A",
"F 	c #ED5C19",
"G 	c #7C4E39",
"H 	c #EB5B19",
"I 	c #6E6866",
"J 	c #7D4D38",
"K 	c #6D6663",
"L 	c #7D4C35",
"M 	c #AF4413",
"N 	c #FE631B",
"O 	c #864527",
"P 	c #B74713",
"Q 	c #6D5B53",
"R 	c #92411C",
"S 	c #C44C15",
"T 	c #6D574D",
"U 	c #727272",
"V 	c #F15D1A",
"W 	c #A24114",
"X 	c #7A442C",
"Y 	c #C04A14",
"Z 	c #91431E",
"` 	c #E85A19",
" .	c #C74E17",
"..	c #F45F1A",
"+.	c #F8601B",
"@.	c #C34F19",
"#.	c #6F6F6F",
"$.	c #E95B19",
"%.	c #AD4B1E",
"&.	c #FF6D1E",
"*.	c #745243",
"=.	c #D65317",
"-.	c #BA4814",
";.	c #725649",
">.	c #AC4312",
",.	c #6E6764",
"'.	c #CD5016",
").	c #894424",
"!.	c #BC4914",
"~.	c #C74D15",
"{.	c #CF5016",
"].	c #C24B15",
"^.	c #9D441B",
"/.	c #6D6764",
"(.	c #863612",
"_.	c #90380F",
":.	c #A03E11",
"<.	c #A74112",
"[.	c #9A3C10",
"}.	c #754B38",
"|.	c #6B6664",
"1.	c #604B41",
"2.	c #635148",
"                                                                                                                        ",
"                                                                                                                        ",
"                                                                                                                        ",
"                                                                                                                        ",
"                                                                                                                        ",
"                                                                                                                        ",
"                                                                                                                        ",
"                                                                                                                        ",
"                                                                                                                        ",
"                                                                                                                        ",
"                                      . + @                                                   . + @                     ",
"                                  # # . $ @ % &                                           # # . $ @ % &                 ",
"                                * = - . + ; > , '                                       * = - . + ; > , '               ",
"                                ) ! * % , ~ ~ { ] ^                                     ) ! * % , ~ ~ { ] ^             ",
"                              / @ ( _ : < [ [ } | 1                                   / @ ( _ : < [ [ } | 1             ",
"                              2 > 3 4 5 6 6 6 7 8 9 0 0                               2 > 3 4 5 6 6 6 7 8 9 0 0         ",
"                              a b c : } 6 6 6 7 d e f 0 f                             a b c : } 6 6 6 7 d e f 0 f       ",
"                              g h i j 6 6 6 6 k l m 0 0 f                             g h i j 6 6 6 6 k l m 0 0 f       ",
"                              , n , o 6 6 6 p q r 0 0 0 0                             , n , o 6 6 6 p q r 0 0 0 0       ",
"                              s _ & t 6 6 6 u v w 0 0 0 0 0                           s _ & t 6 6 6 u v w 0 0 0 0 0     ",
"                              x 2 h y 6 6 p z A B 0 0 0 0                             x 2 h y 6 6 p z A B 0 0 0 0       ",
"                              h b C < 6 6 u d D 0 0 0 f f                             h b C < 6 6 u d D 0 0 0 f f       ",
"                            b & c E < 6 p z A B 0 0 f 0 0                           b & c E < 6 p z A B 0 0 f 0 0       ",
"                            n b 2 ~ 5 6 u d D 0 0 0 0 0 0                           n b 2 ~ 5 6 u d D 0 0 0 0 0 0       ",
"                            i , x { [ p z A B 0 0 0 0 0                             i , x { [ p z A B 0 0 0 0 0         ",
"                            a n c F } u d G 0 0 0 0 0 f                             a n c F } u d G 0 0 0 0 0 f         ",
"                            a x x H 6 z A I 0 0 0 0 f                               a x x H 6 z A I 0 0 0 0 f           ",
"                            c 2 n j 7 d J 0 0 0 0 0 f                               c 2 n j 7 d J 0 0 0 0 0 f           ",
"                            _ > & t z A K 0 0 0 0 f                                 _ > & t z A K 0 0 0 0 f             ",
"                          2 c > a 5 d L 0 0 0 0 0 f                               2 c > a 5 d L 0 0 0 0 0 f             ",
"                          x x _ C u M K 0 0 0 0 f                                 x x _ C u M K 0 0 0 0 f               ",
"                          N b 2 F ] O 0 0 0 f 0 f                                 N b 2 F ] O 0 0 0 f 0 f               ",
"                          i x c o P Q 0 0 f 0 f                                   i x c o P Q 0 0 f 0 f                 ",
"                          2 s b 7 R 0 f 0 f 0 0                                   2 s b 7 R 0 f 0 f 0 0                 ",
"                          _ > i S T 0 U 0 0 U                                     _ > i S T 0 U 0 0 U                   ",
"                        2 c > V W 0 0 0 f 0 U                                   2 c > V W 0 0 0 f 0 U                   ",
"                        x c _ < X 0 U U 0 f                                     x c _ < X 0 U U 0 f                     ",
"                        & x c Y   0 0 0 0 0                                     & x c Y   0 0 0 0 0                     ",
"                        i x a Z   0 0 0 U                                       i x a Z   0 0 0 U                       ",
"                        s > `   0 0 f 0 f                                       s > `   0 0 f 0 f                       ",
"                        > %  .  0 f f 0                                         > %  .  0 f f 0                         ",
"                      c c x     f f f 0                                       c c x     f f f 0                         ",
"                      b c ..    0 0 0 f                                       b c ..    0 0 0 f                         ",
"                      +.+.@.    0 0 0                                         +.+.@.    0 0 0                           ",
"                                f f f                                                   f f f                           ",
"                                f 0                                                     f 0                             ",
"                                0 #.                                                    0 #.                            ",
"                                                                                                                        ",
"                                                                                                                        ",
"                                                                                                                        ",
"            = = ! + > h                                             = = ! + > h                                         ",
"          = # # ! + % N $.                                        = # # ! + % N $.                                      ",
"        $ * = * ; c & h o %.                                    $ * = * ; c & h o %.                                    ",
"        ( ( + c F o y t p M                                     ( ( + c F o y t p M                                     ",
"        ; &.> { [ 6 6 6 k P *.                                  ; &.> { [ 6 6 6 k P *.                                  ",
"        x 2 i t 6 6 6 6 =.-.;.0 U                               x 2 i t 6 6 6 6 =.-.;.0 U                               ",
"        F C V < 6 6 6 p z >.,.0 f                               F C V < 6 6 6 p z >.,.0 f                               ",
"        '.7 t } p p p u | ).U 0 0 f                             '.7 t } p p p u | ).U 0 0 f                             ",
"          !.~.'.q z {.].^./.0 0 0 0                               !.~.'.q z {.].^./.0 0 0 0                             ",
"            (._.:.<.[.}.|.f 0 0 0 0                                 (._.:.<.[.}.|.f 0 0 0 0                             ",
"                1.2.0 0 0 0 U 0 0 0                                     1.2.0 0 0 0 U 0 0 0                             ",
"                #.0 0 0 0 0 0 0 0                                       #.0 0 0 0 0 0 0 0                               ",
"                  f f 0 0 0 0 f 0                                         f f 0 0 0 0 f 0                               ",
"                    0 U 0 0 f                                               0 U 0 0 f                                   ",
"                                                                                                                        ",
"                                                                                                                        ",
"                                                                                                                        ",
"                                                                                                                        ",
"                                                                                                                        ",
"                                                                                                                        "};
