/* XPM */
static char * folderwin_xpm[] = {
"24 24 7 1",
" 	c None",
".	c #000000",
"+	c #000011",
"@	c #386DA6",
"#	c #F5F5DC",
"$	c #7A7A7A",
"%	c #F9D520",
"                        ",
"      ................. ",
"      ................+@",
"      ................+@",
"      .###############+@",
"      .###############.@",
"      .#$#$$###$$$####.@",
"      .#$#############.@",
"      .#$#$$###$$#####.@",
"      .#$#############.@",
"      .#$#%%###$$$####.@",
"      .#$#$###########.@",
"      .#$#$#$$#$$$$$##.@",
"      .#$#$###########.@",
"      .#$#$#$$#$$#####.@",
"      .#$#############.@",
"      .#$#$$###$$$$$##.@",
"      .#$#############.@",
"      .#$#$$###$$$####.@",
"      .###############.@",
"      .###############.@",
"      .................@",
"       @@@@@@@@@@@@@@@@@",
"                        "};
