/* XPM */
static char * folderwin_xpm[] = {
"24 24 7 1",
" 	s background	c None",
".	c black",
"X	c #000000001111",
"o	c #38386D6DA6A6",
"O	c beige",
"+	c skyblue",
"@	c gray40",
"                        ",
"      ................. ",
"      ................Xo",
"      ................Xo",
"      .OOOOOOOOOOOOOOOXo",
"      .OOOOOOOOOOOOOOO.o",
"      .OOOOOOOOOOOOOOO.o",
"      .O+++++@O+++++@O.o",
"      .O+++++@O+++++@O.o",
"      .O+++++@O+++++@O.o",
"      .O+++++@O+++++@O.o",
"      .O@@@@@@O@@@@@@O.o",
"      .OOOOOOOOOOOOOOO.o",
"      .OOOOOOOOOOOOOOO.o",
"      .O+++++@O+++++@O.o",
"      .O+++++@O+++++@O.o",
"      .O+++++@O+++++@O.o",
"      .O+++++@O+++++@O.o",
"      .O@@@@@@O@@@@@@O.o",
"      .OOOOOOOOOOOOOOO.o",
"      .OOOOOOOOOOOOOOO.o",
"      .................o",
"       ooooooooooooooooo",
"                        "};
