/* XPM */
static char * letter_xpm[] = {
"16 16 9 1",
" 	c None",
".	c #808080",
"+	c #FFFFFF",
"@	c #000000",
"#	c #FFFFDB",
"$	c #E8E8E8",
"%	c #CC6A41",
"&	c #84A83C",
"*	c #DFDBE1",
"                ",
"                ",
"                ",
"..............  ",
".++++++++++++.@ ",
".+#$#$#$#$%&%.@ ",
".+$#$#$#$#*%*.@ ",
".+#$#$#$#$#$#.@ ",
".+$@@@$#@#$#$.@ ",
".+#$#$#$#$#$#.@ ",
".+$#@@$@@#$@$.@ ",
".+#$#$#$#$#$#.@ ",
"..............@ ",
" @@@@@@@@@@@@@@ ",
"                ",
"                "};
