/* XPM */
static char * letter_mask_xpm[] = {
/* width height ncolors chars_per_pixel */
"22 22 2 1",
/* colors */
" 	s None	c None",
".	c black",
/* pixels */
"                      ",
"                      ",
"                      ",
" .................    ",
" ..................   ",
" ...................  ",
" .................... ",
" .................... ",
" .................... ",
" .................... ",
" .................... ",
" .................... ",
" .................... ",
" .................... ",
" .................... ",
" .................... ",
"  ................... ",
"   .................. ",
"    ................  ",
"                      ",
"                      ",
"                      "};
