/* XPM */
static char * letter_xpm[] = {
/* width height ncolors chars_per_pixel */
"20 22 5 1",
/* colors */
" 	s None	c None",
".	c black",
"X	c wheat",
"o	c sienna",
"O	c dark slate grey",
/* pixels */
"                    ",
"                    ",
"                    ",
"                    ",
"                    ",
"                    ",
".................   ",
".XXXXXXXXXXXXXXXX.  ",
".XXXXXXXXXXXooooXo. ",
".XXXXXXXXXXXooooXoO.",
".XXXXXXXXXXXooooXoO.",
".XXXXXXXXXXXXXXXXoO.",
".XXXoXXooooXXXXXXoO.",
".XXXXXXXXXXXXXXXXoO.",
".XXXoooXXoooooXXXoO.",
".XXXXXXXXXXXXXXXXoO.",
".XXXoooooXXXooXXXoO.",
".XXXXXXXXXXXXXXXXoO.",
".XXXXXXXXXXXXXXXXoO.",
" .oooooooooooooooOO.",
"  .OOOOOOOOOOOOOOO.O",
"   ...............O "};
