/* XPM */
static char * mini_folder_xpm[] = {
"16 16 6 1",
" 	c None",
".	c #808080",
"+	c #C0C0C0",
"@	c #FFFF00",
"#	c #FFFFFF",
"$	c #000000",
"                ",
"  .....         ",
" .+@+@+.        ",
".+@+@+@+......  ",
".############.$ ",
".#@+@+@+@+@+@.$ ",
".#+@+@+@+@+@+.$ ",
".#@+@+@+@+@+@.$ ",
".#+@+@+@+@+@+.$ ",
".#@+@+@+@+@+@.$ ",
".#+@+@+@+@+@+.$ ",
".#@+@+@+@+@+@.$ ",
"..............$ ",
" $$$$$$$$$$$$$$ ",
"                ",
"                "};
