/* XPM */
static char * next_is_xpm[] = {
/* width height num_colors chars_per_pixel */
"24 24 31 1",
/* colors */
" 	s background	c None",
".	c #929292",
"X	c #a7a7a7",
"o	c #a3a3a3",
"O	c #b7b7b7",
"+	c #afafaf",
"@	c #9f9f9f",
"#	c #9b9b9b",
"$	c #c7c7c7",
"%	c #ededed",
"&	c #d3d3d3",
"*	c #e3e3e3",
"=	c #d7d7d7",
"-	c #c3c3c3",
";	c #b3b3b3",
":	c #bababa",
">	c #bfbfbf",
",	c #dedede",
"<	c #ababab",
"1	c #cecece",
"2	c #878787",
"3	c #dbdbdb",
"4	c #cacaca",
"5	c #f8f8f8",
"6	c #8f8f8f",
"7	c #8b8b8b",
"8	c #7f7f7f",
"9	c #e4e4e4",
"0	c #979797",
"q	c #808080",
"w	c #787878",
/* pixels */
"                        ",
"     .XoOoOoOoOoOo+@o#. ",
"     .$%%%%%%%%%%%&*=-; ",
"   : .$%O>>,O><>>$@=-<o ",
"  :$$.$%++--++::-:+1>2@ ",
" X;;X#:*:+:+#o1331-3;2@ ",
"  $::@+$XX+:::--::::@2o ",
"   4 o-,:X-33331::::@2o ",
"     .$51::::o+o###+67X ",
"     .$%:::::+::+::-6.+ ",
"     .$%::::::-1-333##  ",
"     .$%:::::1-::::+8#  ",
"    @X=%o###+==:::+@8@  ",
"    .:9,++::-1>X<<X02<  ",
"    .$3##o:::-oo+<X67;  ",
"   @X=*+:::::-XX-O<6.$  ",
"   .:9,+1-:131<X><06+3  ",
"  @X=%:+::+-:76<O06#$,; ",
" @X49,::-1:-@q#<@6#>,=o ",
" 20;<2222288w2<<0+$,,4# ",
" +$1+..####@<:$:-3,=1>@ ",
" $***:;>::::::::::;o@@. ",
"     + 31111111114$-$-- ",
"                        "};
