/* XPM */
static char * next_is_xpm[] = {
"24 24 16 1",
" 	s background	c None",
".	c black",
"X	c white",
"o	c #717179798686",
"O	c #000000001111",
"+	c red",
"@	c #38386D6DA6A6",
"#	c #030303030404",
"$	c #B6B6AEAEB6B6",
"%	c #8E8E8A8A8E8E",
"&	c #A6A679798E8E",
"*	c #797986869E9E",
"=	c #BEBEB6B6BEBE",
"-	c #AEAEAEAEB6B6",
";	c #5151A2A24949",
":	c #9E9E9A9A9E9E",
"                        ",
"       . . . . . . . . .",
"      . . . . . . . . O ",
"   +   X X X X X X @ o .",
"  +   . X @ X @ @ @ X O ",
" +     X X X X X X X o .",
"+ + + + X @ @ @ X X X . ",
" +     + + X X X X X o .",
"  +   . X + X X X X X . ",
"   +   X X + X X @ @ O .",
"      . X X + X X X X @ ",
"       X X X + X X X O .",
"      . X X X X X X $ @ ",
"     . X @ @ X X X $ O .",
"      X X X X X $ $ @ @ ",
"     . @ @ @ @ * $ % O .",
"    . X X X X X $ % # & ",
"     X X X @ X @ & # @ .",
"    X X X X X O o O # & ",
"   X X X X $ O @ # # & .",
"  . . # O # # # # @ % % ",
"       @ @ @ @ @ o * % .",
"      . . . . . . . . . ",
"                        "};
