/* XPM */
static char * prev_is_xpm[] = {
/* width height num_colors chars_per_pixel */
"24 24 30 1",
/* colors */
" 	s background	c None",
".	c #939393",
"X	c #ababab",
"o	c #a7a7a7",
"O	c #b6b6b6",
"+	c #afafaf",
"@	c #a2a2a2",
"#	c #9f9f9f",
"$	c #c7c7c7",
"%	c #eeeeee",
"&	c #d6d6d6",
"*	c #e3e3e3",
"=	c #c3c3c3",
"-	c #b3b3b3",
";	c #bfbfbf",
":	c #dfdfdf",
">	c #bbbbbb",
",	c #cfcfcf",
"<	c #878787",
"1	c #9b9b9b",
"2	c #dbdbdb",
"3	c #cbcbcb",
"4	c #f8f8f8",
"5	c #8f8f8f",
"6	c #838383",
"7	c #7f7f7f",
"8	c #e5e5e5",
"9	c #979797",
"0	c #7a7a7a",
"q	c #898989",
/* pixels */
"                        ",
"     .XoOoOoOoOoOo+@o#. ",
"     .$%%%%%%%%%%%&*&=- ",
"     .$%O;=:O;+;=$@&=X@ ",
"     .$%--$$-->>$>-,;<@ ",
" XXXX1>*>->-1o,22,$2O<@ ",
" O>>>@+3oo-o#-$$>>>>#<@ ",
" =,,,o=:>o$,>2*,>>>>#<@ ",
"     .$4,>>>o>,o111-55X ",
"     .$%>>>>#-2>->>$..- ",
"     .$%o->>-$*,$222#1  ",
"     .$%##o#-22>>>>-61  ",
"    @X2%11+1>*2>>>-@7@  ",
"    .>8:->22**;XXXo1<+  ",
"    .$211o>>>$@@+Xo.5O  ",
"   @X2*->>>>>$oX=OX..$; ",
"   .>8:-,$>,2,XX=X95+:; ",
"  @X2%>->>-$>55X>151$:- ",
" @X38:>>$,>$@6#X#.1;:&@ ",
" <1-X<<<<<670qXX1-$:*,# ",
" +$,+.91111@+>$>=2:2,;@ ",
" $***>O=>>>>>>>>>;Oo##9 ",
"     + 2,,,,,,,,,3$$$$= ",
"                        "};
