/* XPM */
static char * privtool_empty_xpm[] = {
/* width height num_colors chars_per_pixel */
"64 64 4 1",
/* colors */
" 	c None",
".	c black",
"X	c white",
"o	c gray",
/* pixels */
"                                                                ",
"                                                                ",
"                                                                ",
"                                                                ",
"                                                                ",
"                                                                ",
"                                                                ",
"                                                                ",
"                                                                ",
"                                                                ",
"                                                                ",
"                                                                ",
"                                                                ",
"                                                                ",
"                                                                ",
"                                                                ",
"                                                                ",
"                                                                ",
"                                                                ",
"                                                                ",
"               .................................                ",
"              .XXXXXXXXXXXXXXXXXXXXXXXXXXXXXXXXX.               ",
"              .X...............................X.               ",
"             .X.XXXXXXXXXXXXXXXXXXXXXXXXXXXXXXX.X.              ",
"             .X.XXXXXXXXXXXXXXXXXXXXXXXXXXXXXXX.X.              ",
"            .X.X.XXXXXXXXXXXXXXXXXXXXXXXXXXXXX.X.X.             ",
"            .X.X...............................X.X.             ",
"           .X.XX.ooooooooooooooooooooooooooooo.XX.X.            ",
"           .X.X.ooooooooooooooooooooooooooooooo.X.X.            ",
"          .X.XX.ooooooooooooooooooooooooooooooo.XX.X.           ",
"          .X.XX.ooooooooooooooooooooooooooooooo.XX.X.           ",
"         .X..X.ooooooooooooooooooooooooooooooooo.XX.X.          ",
"         .X..X.ooooooooooooooooooooooooooooooooo.X..X.          ",
"         .XX........oooooooooooooooooooooo.........XX.          ",
"         .XXXXXXXXXX.ooooooooooooooooooooo.XXXXXXXXXX.          ",
"         .XXXXXXXXXX.ooooooooooooooooooooo.XXXXXXXXXX.          ",
"         .XXXXXXXXXX.ooooooooooooooooooooo.XXXXXXXXXX.          ",
"         .XXXXXXXXXXX.....................XXXXXXXXXXX.          ",
"         .XXXXXXXXXXXXXXXXXXXXXXXXXXXXXXXXXXXXXXXXXXX.          ",
"         .XXXXXXXXXXXXXXXXXXXXXXXXXXXXXXXXXXXXXXXXXXX.          ",
"          .XXXXXXXXXXXXXXXXXXXXXXXXXXXXXXXXXXXXXXXXX..          ",
"          ..XXXXXXXXXXXXXXXXXXXXXXXXXXXXXXXXXXXXXXX...          ",
"           ..........................................           ",
"            ........................................            ",
"                                                                ",
"                                                                ",
"                                                                ",
"                                                                ",
"           XXXXXXXXXXXXXXXXXXXXXXXXXXXXXXXXXXXXXXXXXXX          ",
"           XXXXXXXXXXXXXXXXXXXXXXXXXXXXXXXXXXXXXXXX.XX          ",
"           XXXXXXXXXXXXXX.XXXXXXXX.XXXXXXXXXXXXXXXX.XX          ",
"           XXXXXXXXXXXXXXXXXXXXXXX.XXXXXXXXXXXXXXXX.XX          ",
"           XX.X...XXX.X.X.X.XXXX....X....XXX....XXX.XX          ",
"           XX..XXX.XX..XX.X.XXXX.X.X.XXXX.X.XXXX.XX.XX          ",
"           XX.XXXX.XX.XXX.XX.XX.XX.X.XXXX.X.XXXX.XX.XX          ",
"           XX.XXXX.XX.XXX.XX.XX.XX.X.XXXX.X.XXXX.XX.XX          ",
"           XX..XXX.XX.XXX.XXX..XXX.X.XXXX.X.XXXX.XX.XX          ",
"           XX.X...XXX.XXX.XXX..XXX..X....XXX....XXX.XX          ",
"           XX.XXXXXXXXXXXXXXXXXXXXXXXXXXXXXXXXXXXXXXXX          ",
"           XX.XXXXXXXXXXXXXXXXXXXXXXXXXXXXXXXXXXXXXXXX          ",
"           XXXXXXXXXXXXXXXXXXXXXXXXXXXXXXXXXXXXXXXXXXX          ",
"                                                                ",
"                                                                ",
"                                                                "};
