/* XPM */
static char * privtool_new_xpm[] = {
/* width height num_colors chars_per_pixel */
"64 64 5 1",
/* colors */
" 	c None",
".	c black",
"X	c linen",
"o	c white",
"O	c gray",
/* pixels */
"                                                                ",
"                                                                ",
"                                                                ",
"                                                                ",
"                               ...                              ",
"                             ..XXX.                             ",
"                           ..XXX.X.                             ",
"                         ..XXX....X.                            ",
"                       ..XXX.......o..                          ",
"                     ..XXXXX....o...XX.                         ",
"                   ..XXXXXXXX....XXX..X. .                      ",
"                 ..XXXXXXXX...XXX........X.                     ",
"               ..XXXXXXX...XXXXX......XXXXX.                    ",
"             ..XXXXXX...XXXXXX....XXXX....X.                    ",
"           ..XXXXX...XXXXX....XXXXX.......X.                    ",
"         ..XXXX...XXXXX...XXX..XX.......o..X.                   ",
"         .XX...XXXX....XXXXX.....o.........X.                   ",
"          ..XXXX...XXXXXXXXX..o...o........X.                   ",
"         .XXX...XXXXXXXXXXXX...o...oo.....XXX.                  ",
"         .XX.XXXXXXXXXXXXXXX.o..o.o....XXXXXX.                  ",
"         .XX.XXXXXXXXXXXXXXX.ooo...XXXXXXXXXX...                ",
"          .XX.XXXXXXXXXXXXXXX...o.XXXXXXXXXXXX.o.               ",
"          .XX.XXXXXXXXXXXXXXXX...XXXXXXXXXXXXX.o.               ",
"           .X.XXXXXXXXXXXXXXXXXXXXXXXXX...XXXX..o.              ",
"           .XX.XXXXXXXXXXXXXXXXXXXXX...XXXXXXXX.o.              ",
"            .X.XXXXXXXXXXXXXXXXXX...XXXXXXXXXXX..o.             ",
"            .X.XXXXXXXXXXXXXX....XXXXXX....XXXX..o.             ",
"           .o.X.XXXXXXXXXXXXXXXXXXXX...XXXXXXXXX..o.            ",
"           .o.X.XXXXXXXXXXXXXXXXX...XXXXXXXXXXXX..o.            ",
"          .o..X.XXXXXXXXXXXXXX...XXXXXXX...XXXXXX..o.           ",
"          .o...X.XXXXXXXXXXXXXXXXXXXX...XXXXXXXXX..o.           ",
"         .o....X.XXXXXXXXXXXXXXXXX...XXXXXXXXXX.....o.          ",
"         .o......XXXXXXXXXXXXXXX..XXXXXXXXX....OO...o.          ",
"         .oo........XXXXXXXXXXXXXXXXXXXX...........oo.          ",
"         .oooooooooo.XXXXXXXXXXXXXXX....OO.oooooooooo.          ",
"         .oooooooooo.XXXXXXXXXXX....OOOOOO.oooooooooo.          ",
"         .oooooooooo.XXXXXXXX...OOOOOOOOOO.oooooooooo.          ",
"         .ooooooooooo.....................ooooooooooo.          ",
"         .ooooooooooooooooooooooooooooooooooooooooooo.          ",
"         .ooooooooooooooooooooooooooooooooooooooooooo.          ",
"          .ooooooooooooooooooooooooooooooooooooooooo..          ",
"          ..ooooooooooooooooooooooooooooooooooooooo...          ",
"           ..........................................           ",
"            ........................................            ",
"                                                                ",
"                                                                ",
"                                                                ",
"                                                                ",
"           ooooooooooooooooooooooooooooooooooooooooooo          ",
"           oooooooooooooooooooooooooooooooooooooooo.oo          ",
"           oooooooooooooo.oooooooo.oooooooooooooooo.oo          ",
"           ooooooooooooooooooooooo.oooooooooooooooo.oo          ",
"           oo.o...ooo.o.o.o.oooo....o....ooo....ooo.oo          ",
"           oo..ooo.oo..oo.o.oooo.o.o.oooo.o.oooo.oo.oo          ",
"           oo.oooo.oo.ooo.oo.oo.oo.o.oooo.o.oooo.oo.oo          ",
"           oo.oooo.oo.ooo.oo.oo.oo.o.oooo.o.oooo.oo.oo          ",
"           oo..ooo.oo.ooo.ooo..ooo.o.oooo.o.oooo.oo.oo          ",
"           oo.o...ooo.ooo.ooo..ooo..o....ooo....ooo.oo          ",
"           oo.oooooooooooooooooooooooooooooooooooooooo          ",
"           oo.oooooooooooooooooooooooooooooooooooooooo          ",
"           ooooooooooooooooooooooooooooooooooooooooooo          ",
"                                                                ",
"                                                                ",
"                                                                "};
