#define privtool_new_width 64
#define privtool_new_height 64
static unsigned char privtool_new_bits[] = {
   0x00, 0x00, 0x00, 0x00, 0x00, 0x00, 0x00, 0x00, 0x00, 0x00, 0x00, 0x00,
   0x00, 0x00, 0x00, 0x00, 0x00, 0x00, 0x00, 0x00, 0x00, 0x00, 0x00, 0x00,
   0x00, 0x00, 0x00, 0x00, 0x00, 0x00, 0x00, 0x00, 0x00, 0x00, 0x00, 0x80,
   0x03, 0x00, 0x00, 0x00, 0x00, 0x00, 0x00, 0x60, 0x04, 0x00, 0x00, 0x00,
   0x00, 0x00, 0x00, 0x18, 0x05, 0x00, 0x00, 0x00, 0x00, 0x00, 0x00, 0xc6,
   0x0b, 0x00, 0x00, 0x00, 0x00, 0x00, 0x80, 0xf1, 0x37, 0x00, 0x00, 0x00,
   0x00, 0x00, 0x60, 0xf0, 0x4e, 0x00, 0x00, 0x00, 0x00, 0x00, 0x18, 0xe0,
   0xb1, 0x02, 0x00, 0x00, 0x00, 0x00, 0x06, 0x38, 0xfe, 0x05, 0x00, 0x00,
   0x00, 0x80, 0x01, 0x07, 0x3f, 0x08, 0x00, 0x00, 0x00, 0x60, 0xe0, 0xc0,
   0xc3, 0x0b, 0x00, 0x00, 0x00, 0x18, 0x1c, 0x3c, 0xf8, 0x0b, 0x00, 0x00,
   0x00, 0x86, 0x83, 0x63, 0xfe, 0x16, 0x00, 0x00, 0x00, 0x72, 0x78, 0xf0,
   0xfd, 0x17, 0x00, 0x00, 0x00, 0x0c, 0x07, 0xb0, 0xfb, 0x17, 0x00, 0x00,
   0x00, 0xe2, 0x00, 0x70, 0xe7, 0x23, 0x00, 0x00, 0x00, 0x12, 0x00, 0xd0,
   0x7a, 0x20, 0x00, 0x00, 0x00, 0x12, 0x00, 0x10, 0x07, 0xe0, 0x00, 0x00,
   0x00, 0x24, 0x00, 0xe0, 0x02, 0x40, 0x01, 0x00, 0x00, 0x24, 0x00, 0xc0,
   0x01, 0x40, 0x01, 0x00, 0x00, 0x28, 0x00, 0x00, 0x80, 0xc3, 0x02, 0x00,
   0x00, 0x48, 0x00, 0x00, 0x70, 0x80, 0x02, 0x00, 0x00, 0x50, 0x00, 0x00,
   0x0e, 0x80, 0x05, 0x00, 0x00, 0x50, 0x00, 0xe0, 0x81, 0x87, 0x05, 0x00,
   0x00, 0xa8, 0x00, 0x00, 0x70, 0x00, 0x0b, 0x00, 0x00, 0xa8, 0x00, 0x00,
   0x0e, 0x00, 0x0b, 0x00, 0x00, 0xb4, 0x00, 0xc0, 0x01, 0x07, 0x16, 0x00,
   0x00, 0x74, 0x01, 0x00, 0xe0, 0x00, 0x16, 0x00, 0x00, 0x7a, 0x01, 0x00,
   0x1c, 0x80, 0x2f, 0x00, 0x00, 0xfa, 0x01, 0x00, 0x03, 0x78, 0x2e, 0x00,
   0x00, 0xf2, 0x0f, 0x00, 0x00, 0xff, 0x27, 0x00, 0x00, 0x02, 0x10, 0x00,
   0xf0, 0x04, 0x20, 0x00, 0x00, 0x02, 0x10, 0x00, 0x0f, 0x04, 0x20, 0x00,
   0x00, 0x02, 0x10, 0xe0, 0x00, 0x04, 0x20, 0x00, 0x00, 0x02, 0xe0, 0xff,
   0xff, 0x03, 0x20, 0x00, 0x00, 0x02, 0x00, 0x00, 0x00, 0x00, 0x20, 0x00,
   0x00, 0x02, 0x00, 0x00, 0x00, 0x00, 0x20, 0x00, 0x00, 0x04, 0x00, 0x00,
   0x00, 0x00, 0x30, 0x00, 0x00, 0x0c, 0x00, 0x00, 0x00, 0x00, 0x38, 0x00,
   0x00, 0xf8, 0xff, 0xff, 0xff, 0xff, 0x1f, 0x00, 0x00, 0xf0, 0xff, 0xff,
   0xff, 0xff, 0x0f, 0x00, 0x00, 0x00, 0x00, 0x00, 0x00, 0x00, 0x00, 0x00,
   0x00, 0x00, 0x00, 0x00, 0x00, 0x00, 0x00, 0x00, 0x00, 0x00, 0x00, 0x00,
   0x00, 0x00, 0x00, 0x00, 0x00, 0x00, 0x00, 0x00, 0x00, 0x00, 0x00, 0x00,
   0x00, 0x00, 0x00, 0x00, 0x00, 0x00, 0x00, 0x00, 0x00, 0x00, 0x00, 0x00,
   0x00, 0x00, 0x08, 0x00, 0x00, 0x00, 0x00, 0x02, 0x04, 0x00, 0x08, 0x00,
   0x00, 0x00, 0x00, 0x00, 0x04, 0x00, 0x08, 0x00, 0x00, 0xa0, 0xa3, 0x0a,
   0xef, 0xf1, 0x08, 0x00, 0x00, 0x60, 0x64, 0x0a, 0x15, 0x0a, 0x09, 0x00,
   0x00, 0x20, 0x24, 0x92, 0x14, 0x0a, 0x09, 0x00, 0x00, 0x20, 0x24, 0x92,
   0x14, 0x0a, 0x09, 0x00, 0x00, 0x60, 0x24, 0x62, 0x14, 0x0a, 0x09, 0x00,
   0x00, 0xa0, 0x23, 0x62, 0xec, 0xf1, 0x08, 0x00, 0x00, 0x20, 0x00, 0x00,
   0x00, 0x00, 0x00, 0x00, 0x00, 0x20, 0x00, 0x00, 0x00, 0x00, 0x00, 0x00,
   0x00, 0x00, 0x00, 0x00, 0x00, 0x00, 0x00, 0x00, 0x00, 0x00, 0x00, 0x00,
   0x00, 0x00, 0x00, 0x00, 0x00, 0x00, 0x00, 0x00, 0x00, 0x00, 0x00, 0x00,
   0x00, 0x00, 0x00, 0x00, 0x00, 0x00, 0x00, 0x00};
