#define privtool_done_width 64
#define privtool_done_height 64
static unsigned char privtool_done_bits[] = {
   0x00, 0x00, 0x00, 0x00, 0x00, 0x00, 0x00, 0x00, 0x00, 0x00, 0x00, 0x00,
   0x00, 0x00, 0x00, 0x00, 0x00, 0x00, 0x00, 0x00, 0x00, 0x00, 0x00, 0x00,
   0x00, 0x00, 0x00, 0x00, 0x00, 0x00, 0x00, 0x00, 0x00, 0x00, 0x00, 0x00,
   0x00, 0x00, 0x00, 0x00, 0x00, 0x00, 0x00, 0x00, 0x00, 0x00, 0x00, 0x00,
   0x00, 0x00, 0x00, 0x00, 0x00, 0x00, 0x00, 0x00, 0x00, 0x00, 0x00, 0x00,
   0x00, 0x00, 0x00, 0x00, 0x00, 0x00, 0x00, 0x00, 0x00, 0x00, 0x00, 0x00,
   0x00, 0x00, 0x00, 0x00, 0x00, 0x00, 0x00, 0x00, 0x00, 0x00, 0x00, 0x00,
   0x00, 0x00, 0x00, 0x00, 0x00, 0x00, 0x00, 0x00, 0x00, 0x00, 0x00, 0x00,
   0x00, 0x00, 0xfc, 0xff, 0xff, 0x1f, 0x00, 0x00, 0x00, 0x00, 0x0a, 0x00,
   0x00, 0x28, 0x00, 0x00, 0x00, 0x00, 0xfe, 0xff, 0xff, 0x3f, 0x00, 0x00,
   0x00, 0x00, 0x05, 0x00, 0x00, 0x50, 0x00, 0x00, 0x00, 0x00, 0xff, 0xff,
   0xff, 0x7f, 0x00, 0x00, 0x00, 0x80, 0x02, 0x00, 0x00, 0xa0, 0x00, 0x00,
   0x00, 0x80, 0xff, 0xff, 0xff, 0xff, 0x00, 0x00, 0x00, 0x40, 0x01, 0x00,
   0x00, 0x40, 0x01, 0x00, 0x00, 0x40, 0x01, 0x00, 0x00, 0x40, 0x01, 0x00,
   0x00, 0x40, 0x02, 0x00, 0x00, 0x20, 0x01, 0x00, 0x00, 0x40, 0x04, 0x00,
   0x00, 0x10, 0x01, 0x00, 0x00, 0x60, 0x08, 0x00, 0x00, 0x08, 0x03, 0x00,
   0x00, 0x50, 0x10, 0x00, 0x00, 0x04, 0x05, 0x00, 0x00, 0x50, 0x20, 0x00,
   0x00, 0x02, 0x05, 0x00, 0x00, 0x68, 0x40, 0x00, 0x00, 0x01, 0x0b, 0x00,
   0x00, 0x68, 0x80, 0x00, 0x80, 0x00, 0x0b, 0x00, 0x00, 0x74, 0x00, 0x01,
   0x40, 0x00, 0x17, 0x00, 0x00, 0x74, 0x00, 0x02, 0x20, 0x00, 0x17, 0x00,
   0x00, 0x7a, 0x00, 0x05, 0x50, 0x00, 0x2f, 0x00, 0x00, 0x7a, 0x80, 0x08,
   0x88, 0x00, 0x2f, 0x00, 0x00, 0xf2, 0x4f, 0x30, 0x06, 0xf9, 0x27, 0x00,
   0x00, 0x02, 0x30, 0xc0, 0x01, 0x06, 0x20, 0x00, 0x00, 0x02, 0x10, 0x00,
   0x00, 0x04, 0x20, 0x00, 0x00, 0x02, 0x10, 0x00, 0x00, 0x04, 0x20, 0x00,
   0x00, 0x02, 0xe0, 0xff, 0xff, 0x03, 0x20, 0x00, 0x00, 0x02, 0x00, 0x00,
   0x00, 0x00, 0x20, 0x00, 0x00, 0x02, 0x00, 0x00, 0x00, 0x00, 0x20, 0x00,
   0x00, 0x02, 0x00, 0x00, 0x00, 0x00, 0x20, 0x00, 0x00, 0x04, 0x00, 0x00,
   0x00, 0x00, 0x30, 0x00, 0x00, 0x0c, 0x00, 0x00, 0x00, 0x00, 0x38, 0x00,
   0x00, 0xf8, 0xff, 0xff, 0xff, 0xff, 0x1f, 0x00, 0x00, 0xf0, 0xff, 0xff,
   0xff, 0xff, 0x0f, 0x00, 0x00, 0x00, 0x00, 0x00, 0x00, 0x00, 0x00, 0x00,
   0x00, 0x00, 0x00, 0x00, 0x00, 0x00, 0x00, 0x00, 0x00, 0x00, 0x00, 0x00,
   0x00, 0x00, 0x00, 0x00, 0x00, 0x00, 0x00, 0x00, 0x00, 0x00, 0x00, 0x00,
   0x00, 0x00, 0x00, 0x00, 0x00, 0x00, 0x00, 0x00, 0x00, 0x00, 0x00, 0x00,
   0x00, 0x00, 0x08, 0x00, 0x00, 0x00, 0x00, 0x02, 0x04, 0x00, 0x08, 0x00,
   0x00, 0x00, 0x00, 0x00, 0x04, 0x00, 0x08, 0x00, 0x00, 0xa0, 0xa3, 0x0a,
   0xef, 0xf1, 0x08, 0x00, 0x00, 0x60, 0x64, 0x0a, 0x15, 0x0a, 0x09, 0x00,
   0x00, 0x20, 0x24, 0x92, 0x14, 0x0a, 0x09, 0x00, 0x00, 0x20, 0x24, 0x92,
   0x14, 0x0a, 0x09, 0x00, 0x00, 0x60, 0x24, 0x62, 0x14, 0x0a, 0x09, 0x00,
   0x00, 0xa0, 0x23, 0x62, 0xec, 0xf1, 0x08, 0x00, 0x00, 0x20, 0x00, 0x00,
   0x00, 0x00, 0x00, 0x00, 0x00, 0x20, 0x00, 0x00, 0x00, 0x00, 0x00, 0x00,
   0x00, 0x00, 0x00, 0x00, 0x00, 0x00, 0x00, 0x00, 0x00, 0x00, 0x00, 0x00,
   0x00, 0x00, 0x00, 0x00, 0x00, 0x00, 0x00, 0x00, 0x00, 0x00, 0x00, 0x00,
   0x00, 0x00, 0x00, 0x00, 0x00, 0x00, 0x00, 0x00};
