/* XPM */
static char * question_xpm[] = {
"50 70 176 2",
"  	c None",
". 	c #FFD01D",
"+ 	c #FFCC1D",
"@ 	c #FFC71C",
"# 	c #FFC61C",
"$ 	c #FFC51C",
"% 	c #FFD61E",
"& 	c #FFD31E",
"* 	c #FFCB1C",
"= 	c #FFC81C",
"- 	c #FFC91C",
"; 	c #FFC11B",
"> 	c #FFBD1A",
", 	c #FFB119",
"' 	c #F8AA18",
") 	c #FFD91E",
"! 	c #FFD81E",
"~ 	c #FFD51E",
"{ 	c #FFD21D",
"] 	c #CB8C18",
"^ 	c #F4A717",
"/ 	c #FFC21B",
"( 	c #FFB719",
"_ 	c #FFB019",
": 	c #F9AB18",
"< 	c #E59F1A",
"[ 	c #FFDA1E",
"} 	c #FFCD1D",
"| 	c #8C610F",
"1 	c #D18F14",
"2 	c #F6A918",
"3 	c #FEAE18",
"4 	c #FFAF18",
"5 	c #FBAC18",
"6 	c #F1A517",
"7 	c #D4931B",
"8 	c #FFD71E",
"9 	c #8D610D",
"0 	c #BE8212",
"a 	c #E09915",
"b 	c #EBA116",
"c 	c #E29B16",
"d 	c #B7811C",
"e 	c #FFD11D",
"f 	c #FFBF1B",
"g 	c #E19A15",
"h 	c #825E1C",
"i 	c #707070",
"j 	c #717171",
"k 	c #6F6F6F",
"l 	c #8D6821",
"m 	c #B37A11",
"n 	c #D69214",
"o 	c #E49C16",
"p 	c #E99F16",
"q 	c #E79F16",
"r 	c #CC8C13",
"s 	c #96722E",
"t 	c #FFCE1D",
"u 	c #FFC01B",
"v 	c #F3A617",
"w 	c #A37013",
"x 	c #6E675A",
"y 	c #AA8033",
"z 	c #E59D16",
"A 	c #A67416",
"B 	c #FFC31B",
"C 	c #E69E16",
"D 	c #DD9815",
"E 	c #C88913",
"F 	c #896A30",
"G 	c #C29033",
"H 	c #ECA217",
"I 	c #DA9515",
"J 	c #B67D11",
"K 	c #746853",
"L 	c #FFBA1A",
"M 	c #F0A517",
"N 	c #D79314",
"O 	c #B17A11",
"P 	c #726D64",
"Q 	c #FAAB18",
"R 	c #DC9715",
"S 	c #C48613",
"T 	c #7B663F",
"U 	c #727272",
"V 	c #FFB619",
"W 	c #77684D",
"X 	c #FFB219",
"Y 	c #DF9915",
"Z 	c #87682D",
"` 	c #DB9615",
" .	c #BD8112",
"..	c #71644C",
"+.	c #FEB619",
"@.	c #FFBB1A",
"#.	c #CD8C14",
"$.	c #88682D",
"%.	c #EEA317",
"&.	c #A97410",
"*.	c #FFB71A",
"=.	c #FFBE1B",
"-.	c #84662D",
";.	c #C98A13",
">.	c #D39114",
",.	c #D08E14",
"'.	c #756443",
").	c #FFBC1A",
"!.	c #C68713",
"~.	c #776543",
"{.	c #956710",
"].	c #98680E",
"^.	c #9C6B0F",
"/.	c #8D6417",
"(.	c #6F5F41",
"_.	c #F8C51F",
":.	c #FFB91A",
"<.	c #6E6759",
"[.	c #605A4E",
"}.	c #FFCA1C",
"|.	c #D29014",
"1.	c #9A6E19",
"2.	c #F5C622",
"3.	c #C38613",
"4.	c #756444",
"5.	c #FFCF1D",
"6.	c #FFB319",
"7.	c #8C6B2F",
"8.	c #FDD21F",
"9.	c #A7761A",
"0.	c #6D6A65",
"a.	c #F6CD23",
"b.	c #FFD41E",
"c.	c #AB791B",
"d.	c #6F6C66",
"e.	c #F5CA21",
"f.	c #FFB519",
"g.	c #EAA016",
"h.	c #A67519",
"i.	c #6D6A64",
"j.	c #EFA417",
"k.	c #C78813",
"l.	c #8B6A2B",
"m.	c #6C6A64",
"n.	c #B87E11",
"o.	c #78633E",
"p.	c #CB8B13",
"q.	c #996E1C",
"r.	c #6B6353",
"s.	c #BA8012",
"t.	c #7F6129",
"u.	c #D59214",
"v.	c #A26F11",
"w.	c #6B5E49",
"x.	c #CE8D14",
"y.	c #84601C",
"z.	c #FDAD18",
"A.	c #F5A818",
"B.	c #CD8E17",
"C.	c #BA8016",
"D.	c #766443",
"E.	c #736449",
"F.	c #B07911",
"G.	c #6E6B64",
"H.	c #86672E",
"I.	c #BC8012",
"J.	c #A0711A",
"K.	c #895F11",
"L.	c #90620E",
"M.	c #A16E0F",
"N.	c #AB7510",
"O.	c #9D6C0F",
"P.	c #766038",
"Q.	c #6B6964",
"R.	c #5E5340",
"S.	c #645A48",
"                                                                                                    ",
"                                                                                                    ",
"                                                                                                    ",
"                                                                                                    ",
"                                                                                                    ",
"                                                                                                    ",
"                                                                                                    ",
"                                                                                                    ",
"                                                                                                    ",
"                                                                                                    ",
"                                                                                                    ",
"                                                                                                    ",
"                                              . + @ # # $                                           ",
"                                      % & & & . * = - = $ ; > , '                                   ",
"                                    ) ! ~ { -       ] ^ > / > ( _ : <                               ",
"                                % ) [ ! }               | 1 2 3 4 5 6 7                             ",
"                              { 8 ) % /                   9 0 a b 6 ^ c d                           ",
"                              e & & f g h       i j k     l m n g o p q r s                         ",
"                            + * t u v n w x i i j j       y 1 o z g g c n A                         ",
"                            B # # 4 C D E F i j j         G q 6 H c g g I J K k                     ",
"                            u / L M c g N O P i i           6 Q v z g g R S T j U                   ",
"                            V L _ p g g R 0 W j i           5 X : C g g Y r Z j j                   ",
"                            ^ 5 2 C g g `  ...j k         +.( @.5 C g g Y #.$.j j j                 ",
"                            n o %.z a a n &.j j j k       *.@.=.Q z g g Y r -.j j i                 ",
"                              ;.n n >.,. .'.j j j i       ).> @.v c g g D !.~.j i j                 ",
"                                {.].^./.(.i j j i j     _.$ @ :.%.g g g I J <.j j j j               ",
"                                    [.j i j j j i j     }.}.}.X q g g a |.1.j U j i i               ",
"                                    j j j i j j j i   2.* t ; ^ o g g R 3.4.j j j j j               ",
"                                      i j j j j j     5.5.+ 6.p g g Y ,.7.j j j i j                 ",
"                                        i i j j     8.e e f 6 c g a N 9.0.j i j j i                 ",
"                                                  a.& b.}.3 C g Y n c.d.j j j j j j                 ",
"                                                e.~ ~ . f.g.g D ,.h.i.j j i i j j                   ",
"                                                b.~ & > j.g I k.l.m.j j j j i i i                   ",
"                                              ~ b.b./ v a |.n.o.j i j j j j j j                     ",
"                                            % ~ ~ = Q Y p.q.r.j j i j j j i j                       ",
"                                          & b.~ + _ R s.t.j j U j i j j j i                         ",
"                                          & & 5.X u.v.w.j j j j U j U i j                           ",
"                                        . e e L x.y.  j j U j j i j U                               ",
"                                      t t . / ,.    k j j j j U j i                                 ",
"                                      + } }.a     j j j j j j i j                                   ",
"                                    }.= }.z.      j j j i i k                                       ",
"                                    u B ;       k i i j j k                                         ",
"                                    B $ A.    k j i j j                                             ",
"                                  $ ; ;       k j i j                                               ",
"                                  *.*._       i j i                                                 ",
"                                  4 Q B.    j i U                                                   ",
"                                            i i j                                                   ",
"                                            j j                                                     ",
"                                            j                                                       ",
"                                                                                                    ",
"                                                                                                    ",
"                                                                                                    ",
"                          8 ! & }.; ,                                                               ",
"                        8 ) ! & }./ f.g.                                                            ",
"                      . & 8 { / ( X _ b C.                                                          ",
"                      = }.+ ( 6 g.p p c s.                                                          ",
"                      u B @.M c g g a `  .D.i                                                       ",
"                      f.:._ p g g g g `  .E.j j                                                     ",
"                      p ^ ^ z a g g a N F.G.j j                                                     ",
"                      ,.` p o a a a D #.H.j j U j                                                   ",
"                        I.E |.u.N >.k.J.i.i j i i                                                   ",
"                          K.L.M.N.O.P.Q.i j j j j                                                   ",
"                              R.S.j j j U U j j i                                                   ",
"                                j j j j j j j j                                                     ",
"                                i j j j i j i i                                                     ",
"                                    j j U i                                                         ",
"                                                                                                    ",
"                                                                                                    ",
"                                                                                                    ",
"                                                                                                    "};
