/* XPM */
static char * reply_xpm[] = {
"24 24 5 1 XPMEXT",
" 	s background	c None",
".	c black",
"X	c white",
"o	c #000000001111",
"O	c #B6B6AEAEB6B6",
"                        ",
"    ..................  ",
"    .X.X.X.X.X.X.X.Xo.  ",
"    .XXXXXXXXXXXX.XXX.  ",
"    .X..X....X.X.O.XX.  ",
"    .XXXXXXXXXX.O.XXX.  ",
"    .X.X...X.X.O.X..X.  ",
"    .XXXXXXXXX.OXXXXX.  ",
"    .X..X..XX.O.X...X.  ",
"    .XXXXXXX.O.XXXXXX.  ",
"    .XXXXXX.O.XXXXXXX.  ",
"    .X...X.O.XX.....X.  ",
"    .XXXXX.OXXXXXXXXX.  ",
"    .XXXX.O.XXXXXXXXX.  ",
"    .XXX.O.XXXXXXXXXX.  ",
"    .XXX..XXXXXXXXXXX.  ",
"    .XX.XXXXXXXXXXXXX.  ",
"    .XXXXXXXXXXXXXXXX.  ",
"    .XXXXXXXXXXXXXXXX.  ",
"    .XXXXXXXXXXXXXXXX.  ",
"    .XXXXXXXXXXXXXXXX.  ",
"    .XXXXXXXXXXXXXXXX.  ",
"    ..................  ",
"                        ",
"XPMEXT Comment",
"$Id$",
"XPMENDEXT"};
