/* XPM */
static char * reply_is_xpm[] = {
"24 24 5 1",
" 	s background	c None",
".	c black",
"X	c white",
"o	c #000000001111",
"O	c #B6B6AEAEB6B6",
"                        ",
"     . . . . . . . . .  ",
"    . . . . . . . . o   ",
"     X X X X X X . X .  ",
"    . . X . . . . . X   ",
"     X X X X X . . X .  ",
"    . . . . . . . . X   ",
"     X X X X X O X X .  ",
"    . . X . X O X . X   ",
"     X X X X O X X X .  ",
"    . X X X O X X X X   ",
"     X . X O X . . . .  ",
"    . X X . X X X X X   ",
"     X X . . X X X X .  ",
"    . X . . X X X X X   ",
"     X X . X X X X X .  ",
"    . X X X X X X X X   ",
"     X X X X X X X X .  ",
"    . X X X X X X X X   ",
"     X X X X X X X X .  ",
"    . X X X X X X X X   ",
"     X X X X X X X X .  ",
"    . . . . . . . . .   ",
"                        "};
