/* XPM */
static char * undelete_xpm[] = {
"24 24 7 1",
" 	s background	c None",
".	c black",
"X	c #38386D6DA6A6",
"o	c white",
"O	c #000000001111",
"+	c #030303030404",
"@	c red",
"                        ",
"      .................X",
"      .o.o.o.o.o.o. .oOX",
"      .ooooooooooooXooOX",
"      .ooXXooXooXoXXooOX",
"      .ooooooooooooooo.X",
"      .oooXXXXoooooooo.X",
"      ..oooooooooooooo.X",
"      .+++oooooooooooo.X",
"      .o++oooooooooXoo.X",
"      .o+++ooooooooooo.X",
"      .ooo++++ooo+++oo.X",
"      .oooo+++++..+.+o.X",
"      .ooXXXXo+..ooo++.X",
"      .ooooooo@@oooo++.X",
"      .XXXXXX@@@@ooooo.X",
"      .ooooo@@@@@@oooo.X",
"      .oXoX@@o@@o@@ooo.X",
"      .oooo@oo@@oo@ooo.X",
"      .ooooooo@@oooooo.X",
"      +ooooooo@@oooooo.X",
"      ........@@.......X",
"      XXXXXXXX@@XXXXXXXX",
"              @@        "};
