/* XPM */
static char * undelete_is_xpm[] = {
"24 24 7 1",
" 	s background	c None",
".	c black",
"X	c #38386D6DA6A6",
"o	c white",
"O	c #000000001111",
"+	c #030303030404",
"@	c red",
"                        ",
"       . . . . . . . . X",
"      . . . . . . . . O ",
"       o o o o o o X o X",
"      . o X o o X X o O ",
"       o o o o o o o o X",
"      . o X X o o o o . ",
"       . o o o o o o o X",
"      . + o o o o o o . ",
"       o + o o o o X o X",
"      . + + o o o o o . ",
"       o o + + o + + o X",
"      . o o + + . + + . ",
"       o X X o . o o + X",
"      . o o o @ o o + . ",
"       X X X @ @ o o o X",
"      . o o @ @ @ o o . ",
"       o o @ o @ @ o o X",
"      . o o o @ o @ o . ",
"       o o o o @ o o o X",
"      + o o o @ o o o . ",
"       . . . . @ . . . X",
"      X X X X @ X X X X ",
"               @        "};
